<?xml version="1.0" encoding="utf-8"?>
<!-- Generator: Adobe Illustrator 20.1.0, SVG Export Plug-In . SVG Version: 6.00 Build 0)  -->
<svg version="1.1" id="Layer_1" xmlns="http://www.w3.org/2000/svg" xmlns:xlink="http://www.w3.org/1999/xlink" x="0px" y="0px"
	 viewBox="0 0 508.3 432.9" style="enable-background:new 0 0 508.3 432.9;" xml:space="preserve">
<style type="text/css">
	.st0{fill:#FFFFFF;}
	.st1{fill:#152737;stroke:#000000;stroke-miterlimit:10;}
	.st2{font-family:'Roboto-Regular';}
	.st3{font-size:24px;}
	.st4{fill:#152737;}
	.st5{font-family:'Roboto-Medium';}
	.st6{font-size:48px;}
	.st7{fill:none;stroke:#000000;stroke-width:2;stroke-miterlimit:10;}
	.st8{fill:#9A2321;}
	.st9{font-family:'Roboto-Light';}
	.st10{font-size:21px;}
</style>
<rect class="st0" width="508.3" height="432.9"/>
<rect class="st1" width="169.7" height="43.9"/>
<text transform="matrix(1 0 0 1 10.6563 29.8667)" class="st0 st2 st3">Nathan’s Debt</text>
<text transform="matrix(1 0 0 1 58.3412 162.3317)" class="st4 st5 st6">$3,200</text>
<text transform="matrix(0.9999 1.417000e-02 -1.417000e-02 0.9999 116.9047 224.8474)" class="st5 st6">x</text>
<text transform="matrix(1 0 0 1 154.5588 224.8162)" class="st4 st5 st6">12</text>
<line class="st7" x1="35.8" y1="241.1" x2="214.3" y2="241.1"/>
<text transform="matrix(1 0 0 1 34.1275 291.5421)" class="st4 st5 st6">$38,400</text>
<text transform="matrix(1 0 0 1 6.4607 351.7581)" class="st5 st6">+</text>
<line class="st7" x1="35.8" y1="373" x2="214.3" y2="373"/>
<text transform="matrix(1 0 0 1 35.755 420.1108)" class="st8 st5 st6">$65,400</text>
<text transform="matrix(1 0 0 1 242.4415 154.8356)" class="st9 st10">cost of one class at DeVry</text>
<text transform="matrix(1 0 0 1 242.4416 208.5415)" class="st9 st10">Griffin has to take 12 classes </text>
<text transform="matrix(1 0 0 1 242.4416 233.7415)" class="st9 st10">to earn his degree</text>
<text transform="matrix(1 0 0 1 242.4415 283.4047)" class="st9 st10">total loans needed for DeVry</text>
<text transform="matrix(1 0 0 1 242.4416 341.9934)" class="st9 st10">loans from ITT</text>
<text transform="matrix(1 0 0 1 242.4416 392.4442)" class="st9 st10">total debt Griffin will have </text>
<text transform="matrix(1 0 0 1 242.4416 417.6442)" class="st9 st10">after finishing school</text>
<text transform="matrix(1 0 0 1 35.7551 351.7579)" class="st4 st5 st6">$27,000</text>
<text transform="matrix(1 0 0 1 6.4609 75.1486)" class="st9 st10">A estimate on how much student debt Nathan </text>
<text transform="matrix(1 0 0 1 6.4609 100.3486)" class="st9 st10">Griffin </text>
<text transform="matrix(1 0 0 1 66.4609 100.3486)" class="st9 st10">will have after finishing his education</text>
</svg>
